<?xml version="1.0" encoding="UTF-8" standalone="no"?><!DOCTYPE svg PUBLIC "-//W3C//DTD SVG 1.1//EN" "http://www.w3.org/Graphics/SVG/1.1/DTD/svg11.dtd"><svg width="24" height="24" viewBox="0 0 103 103" version="1.1" xmlns="http://www.w3.org/2000/svg" xmlns:xlink="http://www.w3.org/1999/xlink" xml:space="preserve" xmlns:serif="http://www.serif.com/" style="fill-rule:evenodd;clip-rule:evenodd;stroke-linejoin:round;stroke-miterlimit:2;"><rect id="Artboard1" x="0" y="0" width="102.199" height="102.715" style="fill:none;"/><g id="icons_Q2"><path d="M88.621,44.589c-0.389,-7.488 -3.195,-14.43 -7.726,-19.114c-4.703,-5.224 -10.884,-7.678 -17.042,-6.763c-4.809,-10.564 -13.481,-17.231 -22.949,-17.644c-7.745,-0.117 -15.149,4.189 -20.223,11.762c-4.725,6.765 -7.32,15.583 -7.272,24.702c-6.426,5.468 -10.734,14.258 -11.815,24.112c-1.59,10.879 1.046,22.101 7.044,29.995c5.399,6.324 12.489,9.698 19.768,9.41l46.581,-0c17.497,-0 25.677,-14.998 26.131,-29.112c0.384,-11.493 -4.531,-22.246 -12.497,-27.348Zm-46.581,8.822l-0,21.172c-0,3.226 -2.052,5.881 -4.545,5.881c-2.493,0 -4.544,-2.655 -4.544,-5.881l-0,-21.172l-3.636,4.705c-0.86,1.204 -2.071,1.89 -3.338,1.89c-1.471,-0 -2.854,-0.925 -3.706,-2.478c-1.243,-2.565 -0.855,-5.952 0.909,-7.94l11.134,-14.409c0.817,-1.153 1.972,-1.81 3.181,-1.81c1.209,0 2.364,0.657 3.181,1.81l11.134,14.409c1.765,1.988 2.152,5.375 0.909,7.94c-0.851,1.553 -2.235,2.478 -3.706,2.478c-1.267,-0 -2.478,-0.686 -3.338,-1.89l-3.635,-4.705Zm37.037,19.702l-11.134,14.409c-0.817,1.153 -1.972,1.81 -3.181,1.81c-1.209,-0 -2.364,-0.657 -3.181,-1.81l-11.134,-14.409c-1.682,-2.047 -2.06,-5.349 -0.909,-7.94c0.852,-1.553 2.235,-2.478 3.706,-2.478c1.267,0 2.478,0.686 3.338,1.89l3.636,4.705l-0,-21.172c-0,-3.227 2.051,-5.882 4.544,-5.882c2.493,0 4.545,2.655 4.545,5.882l-0,21.172l3.635,-4.705c0.86,-1.204 2.071,-1.89 3.338,-1.89c1.471,0 2.855,0.925 3.706,2.478c1.152,2.591 0.774,5.893 -0.909,7.94Z" style="fill:#fff;fill-rule:nonzero;"/></g></svg>