<?xml version="1.0" encoding="UTF-8" standalone="no"?><!DOCTYPE svg PUBLIC "-//W3C//DTD SVG 1.1//EN" "http://www.w3.org/Graphics/SVG/1.1/DTD/svg11.dtd"><svg width="100%" height="100%" viewBox="0 0 496 463" version="1.1" xmlns="http://www.w3.org/2000/svg" xmlns:xlink="http://www.w3.org/1999/xlink" xml:space="preserve" xmlns:serif="http://www.serif.com/" style="fill-rule:evenodd;clip-rule:evenodd;"><rect id="Artboard1" x="0" y="0" width="494.608" height="460.988" style="fill:none;"/><g><clipPath id="_clip1"><rect x="0" y="0" width="494.608" height="460.988"/></clipPath><g clip-path="url(#_clip1)"><g><path d="M425.058,239.854c0,-12.308 -1.104,-24.146 -3.154,-35.512l-163.512,-0l-0,67.158l93.433,0c-4.025,21.7 -16.254,40.087 -34.642,52.4l0,43.558l56.109,0c32.829,-30.22 51.766,-74.733 51.766,-127.604Z" style="fill:#4285f4;fill-rule:nonzero;"/><path d="M258.392,409.521c46.875,-0 86.175,-15.546 114.896,-42.063l-56.105,-43.558c-15.545,10.417 -35.433,16.571 -58.791,16.571c-45.217,-0 -83.492,-30.542 -97.146,-71.575l-58,-0l-0,44.979c28.567,56.742 87.279,95.646 155.146,95.646Z" style="fill:#34a853;fill-rule:nonzero;"/><path d="M161.246,268.896c-3.471,-10.417 -5.442,-21.546 -5.442,-32.988c0,-11.441 1.971,-22.566 5.442,-32.983l-0,-44.983l-58,-0c-11.759,23.437 -18.467,49.954 -18.467,77.966c0,28.017 6.708,54.529 18.467,77.967l58,-44.979Z" style="fill:#fbbc04;fill-rule:nonzero;"/><path d="M258.392,131.35c25.487,0 48.375,8.758 66.366,25.958l49.796,-49.791c-30.066,-28.017 -69.366,-45.217 -116.162,-45.217c-67.867,0 -126.579,38.904 -155.146,95.642l58,44.983c13.654,-41.037 51.929,-71.575 97.146,-71.575Z" style="fill:#e94235;fill-rule:nonzero;"/></g><path d="M596.933,-41.867l0,555.555c0,33.537 -27.229,60.762 -60.762,60.762l-555.559,0c-33.533,0 -60.762,-27.225 -60.762,-60.763l-0,-555.554c-0,-33.537 27.229,-60.766 60.762,-60.766l555.559,-0c33.533,-0 60.762,27.229 60.762,60.766Z" style="fill:none;stroke:#747775;stroke-width:17.38px;"/></g></g></svg>