<svg xmlns="http://www.w3.org/2000/svg" height="24px" viewBox="0 -960 960 960" width="24px" fill="#e8eaed"><path d="M480-80q-6 0-12-1.5T457-85L128-213q-11-4-19.5-13T100-248v-230q0-124 66.5-228T320-839q45-22 80-33t80-11q45 0 80 11t80 33q87 43 153.5 147T880-478v230q0 14-8.5 23t-19.5 13L503-85q-6 3-12 4.5t-11 1.5Zm0-82 260-98v-189q0-79-42.5-142T637-658q-25 11-52.5 17T480-635q-29 0-56.5-6T371-658q-58 23-100.5 86T228-449v189l252 98Zm0-388q33 0 56.5-23.5T560-620q0-33-23.5-56.5T480-700q-33 0-56.5 23.5T400-620q0 33 23.5 56.5T480-540Zm0-80Z"/></svg>
